<?xml version="1.0" encoding="UTF-8"?>
<svg width="60px" height="40px" viewBox="0 0 60 40" version="1.1" xmlns="http://www.w3.org/2000/svg" xmlns:xlink="http://www.w3.org/1999/xlink">
    <!-- Generator: Sketch 43.2 (39069) - http://www.bohemiancoding.com/sketch -->
    <title>Group</title>
    <desc>Created with Sketch.</desc>
    <defs></defs>
    <g id="Page-1" stroke="none" stroke-width="1" fill="none" fill-rule="evenodd">
        <g id="FF-Mobile-375px-(Fit-Tip)" transform="translate(-158.000000, -204.000000)" stroke="#222222">
            <g id="FIT-TIP" transform="translate(30.000000, 194.000000)">
                <g id="Group" transform="translate(129.000000, 7.000000)">
                    <g id="Bra" transform="translate(0.000000, 4.000000)">
                        <g>
                            <path d="M27.760006,28.5094931 C27.760006,28.5094931 25.6407752,21.771121 20.0638522,20.4455396 C14.4869291,19.1199582 9.35615986,17.5734466 9.35615986,17.5734466 C9.35615986,17.5734466 6.9023137,23.4280977 6.01000601,23.4280977 C5.11769832,23.4280977 6.45615986,29.8445676 7.68308293,32.5967024 C8.91000601,35.3488372 13.1484676,37.6780977 15.8253906,37.6780977 C18.5023136,37.6780977 23.633083,36.7943768 25.3061599,33.5908884 C26.9792367,30.3874001 27.760006,28.5094931 27.760006,28.5094931 Z" id="Path-566" stroke-width="2" fill="#EAC4B3"></path>
                            <path d="M5.89846755,23.6395349 L0.544621394,26.0697674 L2.10615986,37.005814 C2.10615986,37.005814 2.99846755,37.3372093 7.01385216,37.3372093 C11.0292368,37.3372093 12.3676983,36.9031159 12.3676983,36.9031159 C12.3676983,36.9031159 8.93527644,35.6879996 7.69571815,32.3740461 C6.45615986,29.0600927 5.89846755,23.6395349 5.89846755,23.6395349 Z" id="Path-567" stroke-width="2" fill="#EAC4B3"></path>
                            <path d="M52.7446214,28.5094931 C52.7446214,28.5094931 50.6253906,21.771121 45.0484675,20.4455396 C39.4715445,19.1199582 34.3407752,17.5734466 34.3407752,17.5734466 C34.3407752,17.5734466 31.8869291,23.4280977 30.9946214,23.4280977 C30.1023137,23.4280977 31.4407752,29.8445676 32.6676983,32.5967024 C33.8946214,35.3488372 38.133083,37.6780977 40.810006,37.6780977 C43.486929,37.6780977 48.6176984,36.7943768 50.2907752,33.5908884 C51.9638521,30.3874001 52.7446214,28.5094931 52.7446214,28.5094931 Z" id="Path-566-Copy" stroke-width="2" fill="#EAC4B3" transform="translate(41.724515, 27.625772) scale(-1, 1) translate(-41.724515, -27.625772) "></path>
                            <path d="M51.4061599,23.6395349 L46.0523137,26.0697674 L47.6138522,37.005814 C47.6138522,37.005814 48.5061599,37.3372093 52.5215445,37.3372093 C56.5369291,37.3372093 57.8753906,36.9031159 57.8753906,36.9031159 C57.8753906,36.9031159 54.4429687,35.6879996 53.2034105,32.3740461 C51.9638522,29.0600927 51.4061599,23.6395349 51.4061599,23.6395349 Z" id="Path-567-Copy" stroke-width="2" fill="#EAC4B3" transform="translate(51.963852, 30.488372) scale(-1, 1) translate(-51.963852, -30.488372) "></path>
                            <path d="M28.047784,28.5 L30.7763371,28.5 C30.7763371,28.5 32.9513371,34.0271394 34.0667218,34.8003952 C35.1821064,35.573651 31.285361,33.0166895 24.9205679,34.3033021 C26.9921989,30.2405807 28.047784,28.5 28.047784,28.5 Z" id="Path-570" stroke-width="2" fill="#EAC4B3"></path>
                            <path d="M9.64306641,17.2813182 C9.64306641,17.2813182 11.0560322,2.43670508 9.03701172,0.497093023 C6.98461557,-0.387490909 6.62259615,2.70553251 5.8457482,4.80436961 C5.06890024,6.90320671 3.84546274,16.356821 3.84546274,18.0096984 L3.84546274,24.5247662" id="Path-571" stroke-width="2"></path>
                            <path d="M54.258451,17.2813182 C54.258451,17.2813182 55.6714168,2.43670508 53.6523963,0.497093023 C51.6000002,-0.387490909 51.2379808,2.70553251 50.4611328,4.80436961 C49.6842849,6.90320671 48.4608474,16.356821 48.4608474,18.0096984 L48.4608474,24.5247662" id="Path-571-Copy" stroke-width="2" transform="translate(51.600000, 12.433325) scale(-1, 1) translate(-51.600000, -12.433325) "></path>
                        </g>
                    </g>
                </g>
            </g>
        </g>
    </g>
</svg>